# xmcd
#
# Track frame offsets: 
#        150
#        16011
#        31791
#        50172
#        65651
#        82466
#        103993
#        113295
#        129889
#        146611
#
# Disc length: 2247 seconds
#
# Revision: 2
# Processed by: cddbd v1.5.2PL0 Copyright (c) Steve Scherf et al.
# Submitted via: ExactAudioCopy v1.0b1
#
DISCID=8408c50a
DTITLE=Marit Larsen - The Chase
DYEAR=2008
DGENRE=Pop
TTITLE0=The Chase
TTITLE1=If A Song Could Get Me You
TTITLE2=This Is Me, This Is You
TTITLE3=Ten Steps
TTITLE4=Steal My Heart
TTITLE5=Is It Love
TTITLE6=Fuel
TTITLE7=Addicted
TTITLE8=I've Heard Your Love Songs
TTITLE9=Fences
EXTD=
EXTT0=
EXTT1=
EXTT2=
EXTT3=
EXTT4=
EXTT5=
EXTT6=
EXTT7=
EXTT8=
EXTT9=
PLAYORDER=
